<mxfile host="app.diagrams.net" agent="Mozilla/5.0 (Windows NT 10.0; Win64; x64) AppleWebKit/537.36 (KHTML, like Gecko) Chrome/136.0.0.0 Safari/537.36" version="27.0.5">
  <diagram name="PÃ¡gina-1" id="UoVhABDE4vkvAtirLtRU">
    <mxGraphModel grid="1" page="1" gridSize="10" guides="1" tooltips="1" connect="1" arrows="1" fold="1" pageScale="1" pageWidth="827" pageHeight="1169" math="0" shadow="0">
      <root>
        <mxCell id="0" />
        <mxCell id="1" parent="0" />
        <mxCell id="ZdL5vajPiQxjwX77NQJu-1" value="List" style="rounded=0;whiteSpace=wrap;html=1;" vertex="1" parent="1">
          <mxGeometry x="-60" y="925" width="100" height="40" as="geometry" />
        </mxCell>
        <mxCell id="ZdL5vajPiQxjwX77NQJu-14" value="rating" style="ellipse;whiteSpace=wrap;html=1;" vertex="1" parent="1">
          <mxGeometry x="625" y="960" width="60" height="20" as="geometry" />
        </mxCell>
        <mxCell id="ZdL5vajPiQxjwX77NQJu-15" value="username" style="ellipse;whiteSpace=wrap;html=1;" vertex="1" parent="1">
          <mxGeometry x="-364.5" y="475" width="85" height="30" as="geometry" />
        </mxCell>
        <mxCell id="ZdL5vajPiQxjwX77NQJu-16" value="name" style="ellipse;whiteSpace=wrap;html=1;" vertex="1" parent="1">
          <mxGeometry x="-380" y="427.5" width="50" height="25" as="geometry" />
        </mxCell>
        <mxCell id="Xw2auteO8Lhqkds3LCRJ-1" value="&lt;b&gt;idUser&lt;/b&gt;" style="ellipse;whiteSpace=wrap;html=1;" vertex="1" parent="1">
          <mxGeometry x="-510" y="370" width="60" height="20" as="geometry" />
        </mxCell>
        <mxCell id="MujrepZRNqrhU4MuNXRA-1" value="public" style="ellipse;whiteSpace=wrap;html=1;" vertex="1" parent="1">
          <mxGeometry x="25" y="1002.5" width="70" height="30" as="geometry" />
        </mxCell>
        <mxCell id="MujrepZRNqrhU4MuNXRA-2" value="name" style="ellipse;whiteSpace=wrap;html=1;" vertex="1" parent="1">
          <mxGeometry x="-45" y="1030" width="70" height="30" as="geometry" />
        </mxCell>
        <mxCell id="MujrepZRNqrhU4MuNXRA-3" value="&lt;b&gt;idList&lt;/b&gt;" style="ellipse;whiteSpace=wrap;html=1;" vertex="1" parent="1">
          <mxGeometry x="-110" y="1002.5" width="70" height="30" as="geometry" />
        </mxCell>
        <mxCell id="MujrepZRNqrhU4MuNXRA-4" value="biography" style="ellipse;whiteSpace=wrap;html=1;" vertex="1" parent="1">
          <mxGeometry x="-496.25" y="407.5" width="70" height="20" as="geometry" />
        </mxCell>
        <mxCell id="MujrepZRNqrhU4MuNXRA-5" value="picture" style="ellipse;whiteSpace=wrap;html=1;" vertex="1" parent="1">
          <mxGeometry x="-170" y="407.5" width="55" height="20" as="geometry" />
        </mxCell>
        <mxCell id="MujrepZRNqrhU4MuNXRA-6" value="profile" style="ellipse;whiteSpace=wrap;html=1;" vertex="1" parent="1">
          <mxGeometry x="-490" y="330" width="57.5" height="20" as="geometry" />
        </mxCell>
        <mxCell id="MujrepZRNqrhU4MuNXRA-7" value="last_update_date" style="ellipse;whiteSpace=wrap;html=1;" vertex="1" parent="1">
          <mxGeometry x="-490" y="447.5" width="110" height="35" as="geometry" />
        </mxCell>
        <mxCell id="MujrepZRNqrhU4MuNXRA-8" value="creation_date" style="ellipse;whiteSpace=wrap;html=1;" vertex="1" parent="1">
          <mxGeometry x="-201" y="452.5" width="80" height="25" as="geometry" />
        </mxCell>
        <mxCell id="MujrepZRNqrhU4MuNXRA-9" value="hash_password" style="ellipse;whiteSpace=wrap;html=1;" vertex="1" parent="1">
          <mxGeometry x="-276" y="492.5" width="100" height="30" as="geometry" />
        </mxCell>
        <mxCell id="MujrepZRNqrhU4MuNXRA-10" value="email" style="ellipse;whiteSpace=wrap;html=1;" vertex="1" parent="1">
          <mxGeometry x="-251" y="427.5" width="50" height="20" as="geometry" />
        </mxCell>
        <mxCell id="MujrepZRNqrhU4MuNXRA-13" value="Post" style="rounded=0;whiteSpace=wrap;html=1;" vertex="1" parent="1">
          <mxGeometry x="143.5" y="340" width="100" height="40" as="geometry" />
        </mxCell>
        <mxCell id="MujrepZRNqrhU4MuNXRA-15" value="Review_Post" style="rounded=0;whiteSpace=wrap;html=1;" vertex="1" parent="1">
          <mxGeometry x="143.5" y="620" width="100" height="35" as="geometry" />
        </mxCell>
        <mxCell id="MujrepZRNqrhU4MuNXRA-16" value="Spot" style="rounded=0;whiteSpace=wrap;html=1;" vertex="1" parent="1">
          <mxGeometry x="496" y="925" width="100" height="40" as="geometry" />
        </mxCell>
        <mxCell id="MujrepZRNqrhU4MuNXRA-17" value="User" style="rounded=0;whiteSpace=wrap;html=1;" vertex="1" parent="1">
          <mxGeometry x="-340" y="340" width="100" height="40" as="geometry" />
        </mxCell>
        <mxCell id="MujrepZRNqrhU4MuNXRA-18" value="" style="endArrow=none;html=1;rounded=0;entryX=0;entryY=1;entryDx=0;entryDy=0;exitX=0.5;exitY=0;exitDx=0;exitDy=0;" edge="1" parent="1" source="ZdL5vajPiQxjwX77NQJu-16" target="MujrepZRNqrhU4MuNXRA-17">
          <mxGeometry width="50" height="50" relative="1" as="geometry">
            <mxPoint x="-350" y="460" as="sourcePoint" />
            <mxPoint x="-300" y="410" as="targetPoint" />
            <Array as="points" />
          </mxGeometry>
        </mxCell>
        <mxCell id="MujrepZRNqrhU4MuNXRA-19" value="" style="endArrow=none;html=1;rounded=0;exitX=1;exitY=0;exitDx=0;exitDy=0;entryX=0;entryY=0.25;entryDx=0;entryDy=0;" edge="1" parent="1" source="Xw2auteO8Lhqkds3LCRJ-1" target="MujrepZRNqrhU4MuNXRA-17">
          <mxGeometry width="50" height="50" relative="1" as="geometry">
            <mxPoint x="-380" y="400" as="sourcePoint" />
            <mxPoint x="-360" y="370" as="targetPoint" />
            <Array as="points" />
          </mxGeometry>
        </mxCell>
        <mxCell id="MujrepZRNqrhU4MuNXRA-20" value="" style="endArrow=none;html=1;rounded=0;entryX=0.828;entryY=1.013;entryDx=0;entryDy=0;entryPerimeter=0;exitX=0.5;exitY=0;exitDx=0;exitDy=0;" edge="1" parent="1" source="MujrepZRNqrhU4MuNXRA-10" target="MujrepZRNqrhU4MuNXRA-17">
          <mxGeometry width="50" height="50" relative="1" as="geometry">
            <mxPoint x="-275" y="450" as="sourcePoint" />
            <mxPoint x="-225" y="400" as="targetPoint" />
            <Array as="points" />
          </mxGeometry>
        </mxCell>
        <mxCell id="MujrepZRNqrhU4MuNXRA-21" value="" style="endArrow=none;html=1;rounded=0;entryX=0;entryY=0.5;entryDx=0;entryDy=0;exitX=1;exitY=0;exitDx=0;exitDy=0;" edge="1" parent="1" source="MujrepZRNqrhU4MuNXRA-4" target="MujrepZRNqrhU4MuNXRA-17">
          <mxGeometry width="50" height="50" relative="1" as="geometry">
            <mxPoint x="-390" y="450" as="sourcePoint" />
            <mxPoint x="-340" y="400" as="targetPoint" />
            <Array as="points" />
          </mxGeometry>
        </mxCell>
        <mxCell id="MujrepZRNqrhU4MuNXRA-22" value="" style="endArrow=none;html=1;rounded=0;entryX=0.25;entryY=1;entryDx=0;entryDy=0;" edge="1" parent="1" source="ZdL5vajPiQxjwX77NQJu-15" target="MujrepZRNqrhU4MuNXRA-17">
          <mxGeometry width="50" height="50" relative="1" as="geometry">
            <mxPoint x="-280" y="460" as="sourcePoint" />
            <mxPoint x="-255" y="410" as="targetPoint" />
            <Array as="points" />
          </mxGeometry>
        </mxCell>
        <mxCell id="MujrepZRNqrhU4MuNXRA-23" value="" style="endArrow=none;html=1;rounded=0;entryX=0;entryY=0.75;entryDx=0;entryDy=0;exitX=0.556;exitY=-0.033;exitDx=0;exitDy=0;exitPerimeter=0;" edge="1" parent="1" source="MujrepZRNqrhU4MuNXRA-7" target="MujrepZRNqrhU4MuNXRA-17">
          <mxGeometry width="50" height="50" relative="1" as="geometry">
            <mxPoint x="-380" y="470" as="sourcePoint" />
            <mxPoint x="-330" y="420" as="targetPoint" />
            <Array as="points" />
          </mxGeometry>
        </mxCell>
        <mxCell id="MujrepZRNqrhU4MuNXRA-25" value="" style="endArrow=none;html=1;rounded=0;entryX=1;entryY=0.75;entryDx=0;entryDy=0;exitX=0;exitY=0;exitDx=0;exitDy=0;" edge="1" parent="1" source="MujrepZRNqrhU4MuNXRA-5" target="MujrepZRNqrhU4MuNXRA-17">
          <mxGeometry width="50" height="50" relative="1" as="geometry">
            <mxPoint x="-160" y="390" as="sourcePoint" />
            <mxPoint x="-170" y="380" as="targetPoint" />
            <Array as="points" />
          </mxGeometry>
        </mxCell>
        <mxCell id="MujrepZRNqrhU4MuNXRA-27" value="" style="endArrow=none;html=1;rounded=0;exitX=0.5;exitY=0;exitDx=0;exitDy=0;" edge="1" parent="1" source="MujrepZRNqrhU4MuNXRA-8">
          <mxGeometry width="50" height="50" relative="1" as="geometry">
            <mxPoint x="-80" y="475" as="sourcePoint" />
            <mxPoint x="-240" y="380" as="targetPoint" />
          </mxGeometry>
        </mxCell>
        <mxCell id="MujrepZRNqrhU4MuNXRA-28" value="" style="endArrow=none;html=1;rounded=0;exitX=1;exitY=0;exitDx=0;exitDy=0;entryX=0.25;entryY=1;entryDx=0;entryDy=0;" edge="1" parent="1" source="MujrepZRNqrhU4MuNXRA-40" target="MujrepZRNqrhU4MuNXRA-16">
          <mxGeometry width="50" height="50" relative="1" as="geometry">
            <mxPoint x="491" y="1065" as="sourcePoint" />
            <mxPoint x="520" y="970" as="targetPoint" />
            <Array as="points" />
          </mxGeometry>
        </mxCell>
        <mxCell id="MujrepZRNqrhU4MuNXRA-29" value="" style="endArrow=none;html=1;rounded=0;entryX=0;entryY=0;entryDx=0;entryDy=0;exitX=1;exitY=0.5;exitDx=0;exitDy=0;" edge="1" parent="1" source="MujrepZRNqrhU4MuNXRA-6" target="MujrepZRNqrhU4MuNXRA-17">
          <mxGeometry width="50" height="50" relative="1" as="geometry">
            <mxPoint x="-430" y="345" as="sourcePoint" />
            <mxPoint x="-370" y="340" as="targetPoint" />
          </mxGeometry>
        </mxCell>
        <mxCell id="MujrepZRNqrhU4MuNXRA-30" value="" style="endArrow=none;html=1;rounded=0;exitX=0.37;exitY=0.017;exitDx=0;exitDy=0;exitPerimeter=0;entryX=0.5;entryY=1;entryDx=0;entryDy=0;" edge="1" parent="1" source="MujrepZRNqrhU4MuNXRA-9" target="MujrepZRNqrhU4MuNXRA-17">
          <mxGeometry width="50" height="50" relative="1" as="geometry">
            <mxPoint x="-230" y="462.5" as="sourcePoint" />
            <mxPoint x="-260" y="380" as="targetPoint" />
          </mxGeometry>
        </mxCell>
        <mxCell id="MujrepZRNqrhU4MuNXRA-31" value="" style="endArrow=none;html=1;rounded=0;entryX=0.5;entryY=1;entryDx=0;entryDy=0;exitX=0.607;exitY=0.056;exitDx=0;exitDy=0;exitPerimeter=0;" edge="1" parent="1" source="MujrepZRNqrhU4MuNXRA-42" target="MujrepZRNqrhU4MuNXRA-16">
          <mxGeometry width="50" height="50" relative="1" as="geometry">
            <mxPoint x="501" y="1055" as="sourcePoint" />
            <mxPoint x="551" y="1005" as="targetPoint" />
          </mxGeometry>
        </mxCell>
        <mxCell id="MujrepZRNqrhU4MuNXRA-34" value="" style="endArrow=none;html=1;rounded=0;exitX=0.5;exitY=0;exitDx=0;exitDy=0;entryX=0.75;entryY=1;entryDx=0;entryDy=0;" edge="1" parent="1" source="MujrepZRNqrhU4MuNXRA-38" target="MujrepZRNqrhU4MuNXRA-16">
          <mxGeometry width="50" height="50" relative="1" as="geometry">
            <mxPoint x="571" y="1035" as="sourcePoint" />
            <mxPoint x="570" y="970" as="targetPoint" />
          </mxGeometry>
        </mxCell>
        <mxCell id="MujrepZRNqrhU4MuNXRA-35" value="" style="endArrow=none;html=1;rounded=0;exitX=0.386;exitY=0.017;exitDx=0;exitDy=0;exitPerimeter=0;entryX=0.75;entryY=1;entryDx=0;entryDy=0;" edge="1" parent="1" source="MujrepZRNqrhU4MuNXRA-1" target="ZdL5vajPiQxjwX77NQJu-1">
          <mxGeometry width="50" height="50" relative="1" as="geometry">
            <mxPoint x="60" y="1020" as="sourcePoint" />
            <mxPoint x="8" y="980" as="targetPoint" />
          </mxGeometry>
        </mxCell>
        <mxCell id="MujrepZRNqrhU4MuNXRA-36" value="" style="endArrow=none;html=1;rounded=0;entryX=0.5;entryY=1;entryDx=0;entryDy=0;" edge="1" parent="1" source="MujrepZRNqrhU4MuNXRA-2" target="ZdL5vajPiQxjwX77NQJu-1">
          <mxGeometry width="50" height="50" relative="1" as="geometry">
            <mxPoint x="-35" y="1045" as="sourcePoint" />
            <mxPoint x="15" y="995" as="targetPoint" />
          </mxGeometry>
        </mxCell>
        <mxCell id="MujrepZRNqrhU4MuNXRA-37" value="" style="endArrow=none;html=1;rounded=0;exitX=0.5;exitY=0;exitDx=0;exitDy=0;entryX=0.25;entryY=1;entryDx=0;entryDy=0;" edge="1" parent="1" source="MujrepZRNqrhU4MuNXRA-3" target="ZdL5vajPiQxjwX77NQJu-1">
          <mxGeometry width="50" height="50" relative="1" as="geometry">
            <mxPoint x="-60" y="1045" as="sourcePoint" />
            <mxPoint x="-10" y="995" as="targetPoint" />
          </mxGeometry>
        </mxCell>
        <mxCell id="MujrepZRNqrhU4MuNXRA-38" value="description" style="ellipse;whiteSpace=wrap;html=1;" vertex="1" parent="1">
          <mxGeometry x="540" y="1052.5" width="70" height="30" as="geometry" />
        </mxCell>
        <mxCell id="MujrepZRNqrhU4MuNXRA-39" value="photo" style="ellipse;whiteSpace=wrap;html=1;" vertex="1" parent="1">
          <mxGeometry x="173.5" y="1047.5" width="70" height="30" as="geometry" />
        </mxCell>
        <mxCell id="MujrepZRNqrhU4MuNXRA-40" value="category" style="ellipse;whiteSpace=wrap;html=1;" vertex="1" parent="1">
          <mxGeometry x="420" y="1040" width="70" height="30" as="geometry" />
        </mxCell>
        <mxCell id="MujrepZRNqrhU4MuNXRA-41" value="city" style="ellipse;whiteSpace=wrap;html=1;" vertex="1" parent="1">
          <mxGeometry x="630" y="992.5" width="70" height="30" as="geometry" />
        </mxCell>
        <mxCell id="MujrepZRNqrhU4MuNXRA-42" value="country" style="ellipse;whiteSpace=wrap;html=1;" vertex="1" parent="1">
          <mxGeometry x="496" y="1020" width="70" height="30" as="geometry" />
        </mxCell>
        <mxCell id="MujrepZRNqrhU4MuNXRA-43" value="name" style="ellipse;whiteSpace=wrap;html=1;" vertex="1" parent="1">
          <mxGeometry x="596" y="1027.5" width="50" height="20" as="geometry" />
        </mxCell>
        <mxCell id="MujrepZRNqrhU4MuNXRA-44" value="&lt;b&gt;idSpot&lt;/b&gt;" style="ellipse;whiteSpace=wrap;html=1;" vertex="1" parent="1">
          <mxGeometry x="400" y="1002.5" width="70" height="30" as="geometry" />
        </mxCell>
        <mxCell id="MujrepZRNqrhU4MuNXRA-47" value="" style="endArrow=none;html=1;rounded=0;exitX=1;exitY=1;exitDx=0;exitDy=0;" edge="1" parent="1" source="MujrepZRNqrhU4MuNXRA-16" target="MujrepZRNqrhU4MuNXRA-43">
          <mxGeometry width="50" height="50" relative="1" as="geometry">
            <mxPoint x="591" y="1027.5" as="sourcePoint" />
            <mxPoint x="641" y="977.5" as="targetPoint" />
          </mxGeometry>
        </mxCell>
        <mxCell id="MujrepZRNqrhU4MuNXRA-48" value="" style="endArrow=none;html=1;rounded=0;exitX=1;exitY=0.75;exitDx=0;exitDy=0;entryX=0.143;entryY=0.167;entryDx=0;entryDy=0;entryPerimeter=0;" edge="1" parent="1" source="MujrepZRNqrhU4MuNXRA-16" target="MujrepZRNqrhU4MuNXRA-41">
          <mxGeometry width="50" height="50" relative="1" as="geometry">
            <mxPoint x="621" y="1025" as="sourcePoint" />
            <mxPoint x="671" y="975" as="targetPoint" />
            <Array as="points" />
          </mxGeometry>
        </mxCell>
        <mxCell id="MujrepZRNqrhU4MuNXRA-49" value="" style="endArrow=none;html=1;rounded=0;entryX=1;entryY=0.5;entryDx=0;entryDy=0;" edge="1" parent="1" target="MujrepZRNqrhU4MuNXRA-16">
          <mxGeometry width="50" height="50" relative="1" as="geometry">
            <mxPoint x="640" y="960" as="sourcePoint" />
            <mxPoint x="651" y="980" as="targetPoint" />
          </mxGeometry>
        </mxCell>
        <mxCell id="MujrepZRNqrhU4MuNXRA-50" value="" style="endArrow=none;html=1;rounded=0;entryX=1;entryY=0.25;entryDx=0;entryDy=0;exitX=0;exitY=0;exitDx=0;exitDy=0;" edge="1" parent="1" source="MujrepZRNqrhU4MuNXRA-161" target="MujrepZRNqrhU4MuNXRA-16">
          <mxGeometry width="50" height="50" relative="1" as="geometry">
            <mxPoint x="681.0332248970908" y="1019.4876736408801" as="sourcePoint" />
            <mxPoint x="721" y="995" as="targetPoint" />
            <Array as="points" />
          </mxGeometry>
        </mxCell>
        <mxCell id="MujrepZRNqrhU4MuNXRA-51" value="" style="endArrow=none;html=1;rounded=0;entryX=0;entryY=1;entryDx=0;entryDy=0;exitX=0.5;exitY=0;exitDx=0;exitDy=0;" edge="1" parent="1" source="MujrepZRNqrhU4MuNXRA-44" target="MujrepZRNqrhU4MuNXRA-16">
          <mxGeometry width="50" height="50" relative="1" as="geometry">
            <mxPoint x="396" y="1035" as="sourcePoint" />
            <mxPoint x="446" y="985" as="targetPoint" />
            <Array as="points" />
          </mxGeometry>
        </mxCell>
        <mxCell id="MujrepZRNqrhU4MuNXRA-52" value="&lt;b&gt;idPost&lt;/b&gt;" style="ellipse;whiteSpace=wrap;html=1;" vertex="1" parent="1">
          <mxGeometry x="91" y="705" width="70" height="30" as="geometry" />
        </mxCell>
        <mxCell id="MujrepZRNqrhU4MuNXRA-54" value="id_spot" style="ellipse;whiteSpace=wrap;html=1;" vertex="1" parent="1">
          <mxGeometry x="228.5" y="705" width="70" height="30" as="geometry" />
        </mxCell>
        <mxCell id="MujrepZRNqrhU4MuNXRA-56" value="id_list" style="ellipse;whiteSpace=wrap;html=1;" vertex="1" parent="1">
          <mxGeometry x="586" y="705" width="70" height="30" as="geometry" />
        </mxCell>
        <mxCell id="MujrepZRNqrhU4MuNXRA-57" value="title" style="ellipse;whiteSpace=wrap;html=1;" vertex="1" parent="1">
          <mxGeometry x="511" y="730" width="70" height="30" as="geometry" />
        </mxCell>
        <mxCell id="MujrepZRNqrhU4MuNXRA-58" value="&lt;b&gt;idPost&lt;/b&gt;" style="ellipse;whiteSpace=wrap;html=1;" vertex="1" parent="1">
          <mxGeometry x="441" y="705" width="70" height="30" as="geometry" />
        </mxCell>
        <mxCell id="MujrepZRNqrhU4MuNXRA-59" value="rating" style="ellipse;whiteSpace=wrap;html=1;" vertex="1" parent="1">
          <mxGeometry x="158.5" y="720" width="70" height="30" as="geometry" />
        </mxCell>
        <mxCell id="MujrepZRNqrhU4MuNXRA-61" value="" style="endArrow=none;html=1;rounded=0;entryX=0.183;entryY=1;entryDx=0;entryDy=0;entryPerimeter=0;exitX=0.5;exitY=0;exitDx=0;exitDy=0;" edge="1" parent="1" source="MujrepZRNqrhU4MuNXRA-52" target="MujrepZRNqrhU4MuNXRA-15">
          <mxGeometry width="50" height="50" relative="1" as="geometry">
            <mxPoint x="101" y="715" as="sourcePoint" />
            <mxPoint x="129" y="632" as="targetPoint" />
            <Array as="points" />
          </mxGeometry>
        </mxCell>
        <mxCell id="MujrepZRNqrhU4MuNXRA-62" value="" style="endArrow=none;html=1;rounded=0;exitX=0.5;exitY=0;exitDx=0;exitDy=0;" edge="1" parent="1" source="MujrepZRNqrhU4MuNXRA-59">
          <mxGeometry width="50" height="50" relative="1" as="geometry">
            <mxPoint x="248" y="725" as="sourcePoint" />
            <mxPoint x="192" y="656" as="targetPoint" />
            <Array as="points" />
          </mxGeometry>
        </mxCell>
        <mxCell id="MujrepZRNqrhU4MuNXRA-64" value="" style="endArrow=none;html=1;rounded=0;entryX=0.75;entryY=1;entryDx=0;entryDy=0;exitX=0.5;exitY=0;exitDx=0;exitDy=0;" edge="1" parent="1" source="MujrepZRNqrhU4MuNXRA-54" target="MujrepZRNqrhU4MuNXRA-15">
          <mxGeometry width="50" height="50" relative="1" as="geometry">
            <mxPoint x="266" y="725" as="sourcePoint" />
            <mxPoint x="294" y="642" as="targetPoint" />
            <Array as="points" />
          </mxGeometry>
        </mxCell>
        <mxCell id="MujrepZRNqrhU4MuNXRA-65" value="" style="endArrow=none;html=1;rounded=0;exitX=0.5;exitY=0;exitDx=0;exitDy=0;entryX=0.25;entryY=1;entryDx=0;entryDy=0;" edge="1" parent="1" source="MujrepZRNqrhU4MuNXRA-58" target="MujrepZRNqrhU4MuNXRA-72">
          <mxGeometry width="50" height="50" relative="1" as="geometry">
            <mxPoint x="438" y="741.5" as="sourcePoint" />
            <mxPoint x="510" y="690" as="targetPoint" />
            <Array as="points" />
          </mxGeometry>
        </mxCell>
        <mxCell id="MujrepZRNqrhU4MuNXRA-66" value="" style="endArrow=none;html=1;rounded=0;entryX=0.5;entryY=1;entryDx=0;entryDy=0;exitX=0.5;exitY=0;exitDx=0;exitDy=0;" edge="1" parent="1" source="MujrepZRNqrhU4MuNXRA-57" target="MujrepZRNqrhU4MuNXRA-72">
          <mxGeometry width="50" height="50" relative="1" as="geometry">
            <mxPoint x="526" y="775" as="sourcePoint" />
            <mxPoint x="554" y="692" as="targetPoint" />
            <Array as="points" />
          </mxGeometry>
        </mxCell>
        <mxCell id="MujrepZRNqrhU4MuNXRA-71" value="Community_Post" style="rounded=0;whiteSpace=wrap;html=1;" vertex="1" parent="1">
          <mxGeometry x="-137.5" y="620" width="100" height="40" as="geometry" />
        </mxCell>
        <mxCell id="MujrepZRNqrhU4MuNXRA-72" value="List_Post" style="rounded=0;whiteSpace=wrap;html=1;" vertex="1" parent="1">
          <mxGeometry x="496" y="625" width="100" height="40" as="geometry" />
        </mxCell>
        <mxCell id="MujrepZRNqrhU4MuNXRA-74" value="id_spot" style="ellipse;whiteSpace=wrap;html=1;" vertex="1" parent="1">
          <mxGeometry x="256" y="1040" width="70" height="30" as="geometry" />
        </mxCell>
        <mxCell id="MujrepZRNqrhU4MuNXRA-75" value="id_list" style="ellipse;whiteSpace=wrap;html=1;" vertex="1" parent="1">
          <mxGeometry x="310" y="1000" width="70" height="30" as="geometry" />
        </mxCell>
        <mxCell id="MujrepZRNqrhU4MuNXRA-76" value="date" style="ellipse;whiteSpace=wrap;html=1;" vertex="1" parent="1">
          <mxGeometry x="151" y="1010" width="70" height="30" as="geometry" />
        </mxCell>
        <mxCell id="MujrepZRNqrhU4MuNXRA-78" value="" style="endArrow=none;html=1;rounded=0;entryX=0.75;entryY=1;entryDx=0;entryDy=0;exitX=0.5;exitY=0;exitDx=0;exitDy=0;" edge="1" parent="1" source="MujrepZRNqrhU4MuNXRA-56" target="MujrepZRNqrhU4MuNXRA-72">
          <mxGeometry width="50" height="50" relative="1" as="geometry">
            <mxPoint x="541" y="775" as="sourcePoint" />
            <mxPoint x="569" y="692" as="targetPoint" />
            <Array as="points" />
          </mxGeometry>
        </mxCell>
        <mxCell id="MujrepZRNqrhU4MuNXRA-79" value="" style="endArrow=none;html=1;rounded=0;entryX=1;entryY=1;entryDx=0;entryDy=0;exitX=0.5;exitY=0;exitDx=0;exitDy=0;" edge="1" parent="1" source="MujrepZRNqrhU4MuNXRA-74" target="MujrepZRNqrhU4MuNXRA-92">
          <mxGeometry width="50" height="50" relative="1" as="geometry">
            <mxPoint x="295" y="1040" as="sourcePoint" />
            <mxPoint x="79" y="942.5" as="targetPoint" />
            <Array as="points" />
          </mxGeometry>
        </mxCell>
        <mxCell id="MujrepZRNqrhU4MuNXRA-80" value="" style="endArrow=none;html=1;rounded=0;entryX=0;entryY=1;entryDx=0;entryDy=0;exitX=0.714;exitY=0;exitDx=0;exitDy=0;exitPerimeter=0;" edge="1" parent="1" source="MujrepZRNqrhU4MuNXRA-76" target="MujrepZRNqrhU4MuNXRA-92">
          <mxGeometry width="50" height="50" relative="1" as="geometry">
            <mxPoint x="51" y="1025.5" as="sourcePoint" />
            <mxPoint x="79" y="942.5" as="targetPoint" />
            <Array as="points" />
          </mxGeometry>
        </mxCell>
        <mxCell id="MujrepZRNqrhU4MuNXRA-81" value="" style="endArrow=none;html=1;rounded=0;entryX=0;entryY=1;entryDx=0;entryDy=0;" edge="1" parent="1" target="MujrepZRNqrhU4MuNXRA-71">
          <mxGeometry width="50" height="50" relative="1" as="geometry">
            <mxPoint x="-197.5" y="719" as="sourcePoint" />
            <mxPoint x="-123.5" y="592" as="targetPoint" />
            <Array as="points" />
          </mxGeometry>
        </mxCell>
        <mxCell id="MujrepZRNqrhU4MuNXRA-82" value="" style="endArrow=none;html=1;rounded=0;entryX=0.867;entryY=0.655;entryDx=0;entryDy=0;entryPerimeter=0;exitX=0.5;exitY=0;exitDx=0;exitDy=0;" edge="1" parent="1" source="MujrepZRNqrhU4MuNXRA-75" target="MujrepZRNqrhU4MuNXRA-92">
          <mxGeometry width="50" height="50" relative="1" as="geometry">
            <mxPoint x="61" y="1035.5" as="sourcePoint" />
            <mxPoint x="89" y="952.5" as="targetPoint" />
            <Array as="points" />
          </mxGeometry>
        </mxCell>
        <mxCell id="MujrepZRNqrhU4MuNXRA-84" value="" style="endArrow=none;html=1;rounded=0;entryX=0.25;entryY=1;entryDx=0;entryDy=0;exitX=0.5;exitY=0;exitDx=0;exitDy=0;" edge="1" parent="1" source="MujrepZRNqrhU4MuNXRA-98" target="MujrepZRNqrhU4MuNXRA-71">
          <mxGeometry width="50" height="50" relative="1" as="geometry">
            <mxPoint x="-141.5" y="685" as="sourcePoint" />
            <mxPoint x="-113.5" y="602" as="targetPoint" />
            <Array as="points" />
          </mxGeometry>
        </mxCell>
        <mxCell id="MujrepZRNqrhU4MuNXRA-86" value="" style="endArrow=none;html=1;rounded=0;exitX=0.5;exitY=0;exitDx=0;exitDy=0;entryX=1;entryY=1;entryDx=0;entryDy=0;" edge="1" parent="1" source="MujrepZRNqrhU4MuNXRA-97" target="MujrepZRNqrhU4MuNXRA-71">
          <mxGeometry width="50" height="50" relative="1" as="geometry">
            <mxPoint x="-131.5" y="695" as="sourcePoint" />
            <mxPoint x="8.5" y="705" as="targetPoint" />
            <Array as="points" />
          </mxGeometry>
        </mxCell>
        <mxCell id="MujrepZRNqrhU4MuNXRA-87" value="" style="endArrow=none;html=1;rounded=0;entryX=0.618;entryY=1.018;entryDx=0;entryDy=0;exitX=0.5;exitY=0;exitDx=0;exitDy=0;entryPerimeter=0;" edge="1" parent="1" source="MujrepZRNqrhU4MuNXRA-100" target="MujrepZRNqrhU4MuNXRA-71">
          <mxGeometry width="50" height="50" relative="1" as="geometry">
            <mxPoint x="-121.5" y="705" as="sourcePoint" />
            <mxPoint x="-93.5" y="622" as="targetPoint" />
            <Array as="points" />
          </mxGeometry>
        </mxCell>
        <mxCell id="MujrepZRNqrhU4MuNXRA-92" value="List_has_Spot" style="rhombus;whiteSpace=wrap;html=1;" vertex="1" parent="1">
          <mxGeometry x="210" y="910" width="100" height="70" as="geometry" />
        </mxCell>
        <mxCell id="MujrepZRNqrhU4MuNXRA-96" value="image" style="ellipse;whiteSpace=wrap;html=1;" vertex="1" parent="1">
          <mxGeometry x="-232.5" y="705" width="70" height="30" as="geometry" />
        </mxCell>
        <mxCell id="MujrepZRNqrhU4MuNXRA-97" value="title" style="ellipse;whiteSpace=wrap;html=1;" vertex="1" parent="1">
          <mxGeometry x="-17.5" y="705" width="70" height="30" as="geometry" />
        </mxCell>
        <mxCell id="MujrepZRNqrhU4MuNXRA-98" value="&lt;b&gt;idPost&lt;/b&gt;" style="ellipse;whiteSpace=wrap;html=1;" vertex="1" parent="1">
          <mxGeometry x="-162.5" y="725" width="70" height="30" as="geometry" />
        </mxCell>
        <mxCell id="MujrepZRNqrhU4MuNXRA-100" value="id_list" style="ellipse;whiteSpace=wrap;html=1;" vertex="1" parent="1">
          <mxGeometry x="-87.5" y="725" width="70" height="30" as="geometry" />
        </mxCell>
        <mxCell id="MujrepZRNqrhU4MuNXRA-113" value="type" style="ellipse;whiteSpace=wrap;html=1;" vertex="1" parent="1">
          <mxGeometry x="231" y="220" width="70" height="30" as="geometry" />
        </mxCell>
        <mxCell id="MujrepZRNqrhU4MuNXRA-114" value="create_date" style="ellipse;whiteSpace=wrap;html=1;" vertex="1" parent="1">
          <mxGeometry x="298.5" y="250" width="70" height="30" as="geometry" />
        </mxCell>
        <mxCell id="MujrepZRNqrhU4MuNXRA-115" value="id_usuario" style="ellipse;whiteSpace=wrap;html=1;" vertex="1" parent="1">
          <mxGeometry x="158.5" y="200" width="70" height="30" as="geometry" />
        </mxCell>
        <mxCell id="MujrepZRNqrhU4MuNXRA-116" value="description" style="ellipse;whiteSpace=wrap;html=1;" vertex="1" parent="1">
          <mxGeometry x="86" y="220" width="70" height="30" as="geometry" />
        </mxCell>
        <mxCell id="MujrepZRNqrhU4MuNXRA-117" value="&lt;b&gt;idPost&lt;/b&gt;" style="ellipse;whiteSpace=wrap;html=1;" vertex="1" parent="1">
          <mxGeometry x="25" y="250" width="70" height="30" as="geometry" />
        </mxCell>
        <mxCell id="MujrepZRNqrhU4MuNXRA-125" value="d" style="ellipse;whiteSpace=wrap;html=1;aspect=fixed;" vertex="1" parent="1">
          <mxGeometry x="161" y="475" width="65" height="65" as="geometry" />
        </mxCell>
        <mxCell id="MujrepZRNqrhU4MuNXRA-126" value="" style="endArrow=none;html=1;rounded=0;exitX=0.5;exitY=0;exitDx=0;exitDy=0;" edge="1" parent="1" source="MujrepZRNqrhU4MuNXRA-71" target="MujrepZRNqrhU4MuNXRA-125">
          <mxGeometry width="50" height="50" relative="1" as="geometry">
            <mxPoint x="141" y="610" as="sourcePoint" />
            <mxPoint x="160" y="520" as="targetPoint" />
            <Array as="points" />
          </mxGeometry>
        </mxCell>
        <mxCell id="MujrepZRNqrhU4MuNXRA-127" value="" style="endArrow=none;html=1;rounded=0;exitX=0.5;exitY=0;exitDx=0;exitDy=0;entryX=0.5;entryY=1;entryDx=0;entryDy=0;" edge="1" parent="1" source="MujrepZRNqrhU4MuNXRA-15" target="MujrepZRNqrhU4MuNXRA-125">
          <mxGeometry width="50" height="50" relative="1" as="geometry">
            <mxPoint x="141" y="610" as="sourcePoint" />
            <mxPoint x="188" y="554" as="targetPoint" />
          </mxGeometry>
        </mxCell>
        <mxCell id="MujrepZRNqrhU4MuNXRA-128" value="" style="endArrow=none;html=1;rounded=0;exitX=0.5;exitY=0;exitDx=0;exitDy=0;" edge="1" parent="1" source="MujrepZRNqrhU4MuNXRA-72" target="MujrepZRNqrhU4MuNXRA-125">
          <mxGeometry width="50" height="50" relative="1" as="geometry">
            <mxPoint x="141" y="610" as="sourcePoint" />
            <mxPoint x="211" y="537.5" as="targetPoint" />
          </mxGeometry>
        </mxCell>
        <mxCell id="MujrepZRNqrhU4MuNXRA-134" value="" style="endArrow=none;html=1;rounded=0;exitX=0;exitY=0;exitDx=0;exitDy=0;entryX=0.25;entryY=1;entryDx=0;entryDy=0;" edge="1" parent="1" source="MujrepZRNqrhU4MuNXRA-125" target="MujrepZRNqrhU4MuNXRA-13">
          <mxGeometry width="50" height="50" relative="1" as="geometry">
            <mxPoint x="-169" y="450" as="sourcePoint" />
            <mxPoint x="-119" y="400" as="targetPoint" />
          </mxGeometry>
        </mxCell>
        <mxCell id="MujrepZRNqrhU4MuNXRA-135" value="" style="endArrow=none;html=1;rounded=0;exitX=1;exitY=0;exitDx=0;exitDy=0;" edge="1" parent="1" source="MujrepZRNqrhU4MuNXRA-125">
          <mxGeometry width="50" height="50" relative="1" as="geometry">
            <mxPoint x="-169" y="450" as="sourcePoint" />
            <mxPoint x="219" y="380" as="targetPoint" />
          </mxGeometry>
        </mxCell>
        <mxCell id="MujrepZRNqrhU4MuNXRA-136" value="" style="endArrow=none;html=1;rounded=0;entryX=1;entryY=1;entryDx=0;entryDy=0;exitX=0;exitY=0;exitDx=0;exitDy=0;" edge="1" parent="1" source="MujrepZRNqrhU4MuNXRA-13" target="MujrepZRNqrhU4MuNXRA-117">
          <mxGeometry width="50" height="50" relative="1" as="geometry">
            <mxPoint x="-144" y="430" as="sourcePoint" />
            <mxPoint x="-94" y="380" as="targetPoint" />
          </mxGeometry>
        </mxCell>
        <mxCell id="MujrepZRNqrhU4MuNXRA-138" value="" style="endArrow=none;html=1;rounded=0;entryX=1;entryY=1;entryDx=0;entryDy=0;exitX=0.25;exitY=0;exitDx=0;exitDy=0;" edge="1" parent="1" source="MujrepZRNqrhU4MuNXRA-13" target="MujrepZRNqrhU4MuNXRA-116">
          <mxGeometry width="50" height="50" relative="1" as="geometry">
            <mxPoint x="-124" y="450" as="sourcePoint" />
            <mxPoint x="-74" y="400" as="targetPoint" />
          </mxGeometry>
        </mxCell>
        <mxCell id="MujrepZRNqrhU4MuNXRA-139" value="" style="endArrow=none;html=1;rounded=0;exitX=0.5;exitY=0;exitDx=0;exitDy=0;entryX=0.5;entryY=1;entryDx=0;entryDy=0;" edge="1" parent="1" source="MujrepZRNqrhU4MuNXRA-13" target="MujrepZRNqrhU4MuNXRA-115">
          <mxGeometry width="50" height="50" relative="1" as="geometry">
            <mxPoint x="200" y="330" as="sourcePoint" />
            <mxPoint x="210" y="230" as="targetPoint" />
          </mxGeometry>
        </mxCell>
        <mxCell id="MujrepZRNqrhU4MuNXRA-140" value="" style="endArrow=none;html=1;rounded=0;entryX=0.5;entryY=1;entryDx=0;entryDy=0;exitX=0.75;exitY=0;exitDx=0;exitDy=0;" edge="1" parent="1" source="MujrepZRNqrhU4MuNXRA-13" target="MujrepZRNqrhU4MuNXRA-113">
          <mxGeometry width="50" height="50" relative="1" as="geometry">
            <mxPoint x="-104" y="470" as="sourcePoint" />
            <mxPoint x="-54" y="420" as="targetPoint" />
          </mxGeometry>
        </mxCell>
        <mxCell id="MujrepZRNqrhU4MuNXRA-142" value="" style="endArrow=none;html=1;rounded=0;entryX=0;entryY=1;entryDx=0;entryDy=0;exitX=1;exitY=0;exitDx=0;exitDy=0;" edge="1" parent="1" source="MujrepZRNqrhU4MuNXRA-13" target="MujrepZRNqrhU4MuNXRA-114">
          <mxGeometry width="50" height="50" relative="1" as="geometry">
            <mxPoint x="346" y="484.45000000000005" as="sourcePoint" />
            <mxPoint x="482.6259550155296" y="380.00262514492715" as="targetPoint" />
          </mxGeometry>
        </mxCell>
        <mxCell id="MujrepZRNqrhU4MuNXRA-145" value="" style="endArrow=none;html=1;rounded=0;exitX=1;exitY=0.5;exitDx=0;exitDy=0;entryX=0;entryY=0.5;entryDx=0;entryDy=0;" edge="1" parent="1" source="ZdL5vajPiQxjwX77NQJu-1" target="MujrepZRNqrhU4MuNXRA-92">
          <mxGeometry width="50" height="50" relative="1" as="geometry">
            <mxPoint x="191" y="1102.5" as="sourcePoint" />
            <mxPoint x="241" y="1052.5" as="targetPoint" />
          </mxGeometry>
        </mxCell>
        <mxCell id="MujrepZRNqrhU4MuNXRA-147" value="" style="endArrow=none;html=1;rounded=0;entryX=0;entryY=0.5;entryDx=0;entryDy=0;exitX=1;exitY=0.5;exitDx=0;exitDy=0;" edge="1" parent="1" source="MujrepZRNqrhU4MuNXRA-92" target="MujrepZRNqrhU4MuNXRA-16">
          <mxGeometry width="50" height="50" relative="1" as="geometry">
            <mxPoint x="191" y="1102.5" as="sourcePoint" />
            <mxPoint x="241" y="1052.5" as="targetPoint" />
          </mxGeometry>
        </mxCell>
        <mxCell id="MujrepZRNqrhU4MuNXRA-158" value="publishes" style="rhombus;whiteSpace=wrap;html=1;" vertex="1" parent="1">
          <mxGeometry x="-92.5" y="325" width="100" height="70" as="geometry" />
        </mxCell>
        <mxCell id="MujrepZRNqrhU4MuNXRA-159" value="" style="endArrow=none;html=1;rounded=0;exitX=1;exitY=0.5;exitDx=0;exitDy=0;entryX=0;entryY=0.5;entryDx=0;entryDy=0;" edge="1" parent="1" source="MujrepZRNqrhU4MuNXRA-17" target="MujrepZRNqrhU4MuNXRA-158">
          <mxGeometry width="50" height="50" relative="1" as="geometry">
            <mxPoint x="-100" y="377.5" as="sourcePoint" />
            <mxPoint x="-50" y="327.5" as="targetPoint" />
          </mxGeometry>
        </mxCell>
        <mxCell id="MujrepZRNqrhU4MuNXRA-160" value="" style="endArrow=none;html=1;rounded=0;entryX=0;entryY=0.5;entryDx=0;entryDy=0;exitX=1;exitY=0.5;exitDx=0;exitDy=0;" edge="1" parent="1" source="MujrepZRNqrhU4MuNXRA-158" target="MujrepZRNqrhU4MuNXRA-13">
          <mxGeometry width="50" height="50" relative="1" as="geometry">
            <mxPoint x="-60" y="422.5" as="sourcePoint" />
            <mxPoint x="-10" y="372.5" as="targetPoint" />
          </mxGeometry>
        </mxCell>
        <mxCell id="MujrepZRNqrhU4MuNXRA-161" value="photo" style="ellipse;whiteSpace=wrap;html=1;" vertex="1" parent="1">
          <mxGeometry x="700" y="950" width="70" height="30" as="geometry" />
        </mxCell>
        <mxCell id="MujrepZRNqrhU4MuNXRA-162" value="reviews" style="rhombus;whiteSpace=wrap;html=1;" vertex="1" parent="1">
          <mxGeometry x="381" y="800" width="100" height="70" as="geometry" />
        </mxCell>
        <mxCell id="MujrepZRNqrhU4MuNXRA-163" value="belongs to" style="rhombus;whiteSpace=wrap;html=1;" vertex="1" parent="1">
          <mxGeometry x="-270" y="910" width="100" height="70" as="geometry" />
        </mxCell>
        <mxCell id="MujrepZRNqrhU4MuNXRA-165" value="&lt;b&gt;1&lt;/b&gt;" style="text;html=1;align=center;verticalAlign=middle;whiteSpace=wrap;rounded=0;" vertex="1" parent="1">
          <mxGeometry x="-162.5" y="330" width="60" height="30" as="geometry" />
        </mxCell>
        <mxCell id="MujrepZRNqrhU4MuNXRA-168" value="&lt;b&gt;N&lt;/b&gt;" style="text;html=1;align=center;verticalAlign=middle;resizable=0;points=[];autosize=1;strokeColor=none;fillColor=none;" vertex="1" parent="1">
          <mxGeometry x="40" y="330" width="30" height="30" as="geometry" />
        </mxCell>
        <mxCell id="MujrepZRNqrhU4MuNXRA-169" value="" style="endArrow=none;html=1;rounded=0;entryX=0;entryY=0.5;entryDx=0;entryDy=0;exitX=0;exitY=0.5;exitDx=0;exitDy=0;" edge="1" parent="1" source="MujrepZRNqrhU4MuNXRA-163" target="MujrepZRNqrhU4MuNXRA-71">
          <mxGeometry width="50" height="50" relative="1" as="geometry">
            <mxPoint x="-380" y="720" as="sourcePoint" />
            <mxPoint x="-330" y="670" as="targetPoint" />
            <Array as="points">
              <mxPoint x="-270" y="640" />
            </Array>
          </mxGeometry>
        </mxCell>
        <mxCell id="MujrepZRNqrhU4MuNXRA-170" value="" style="endArrow=none;html=1;rounded=0;entryX=0;entryY=0.5;entryDx=0;entryDy=0;exitX=1;exitY=0.5;exitDx=0;exitDy=0;" edge="1" parent="1" source="MujrepZRNqrhU4MuNXRA-163" target="ZdL5vajPiQxjwX77NQJu-1">
          <mxGeometry width="50" height="50" relative="1" as="geometry">
            <mxPoint x="-370" y="730" as="sourcePoint" />
            <mxPoint x="-320" y="680" as="targetPoint" />
          </mxGeometry>
        </mxCell>
        <mxCell id="MujrepZRNqrhU4MuNXRA-172" value="&lt;b&gt;1&lt;/b&gt;" style="text;html=1;align=center;verticalAlign=middle;whiteSpace=wrap;rounded=0;" vertex="1" parent="1">
          <mxGeometry x="-279.5" y="860" width="60" height="30" as="geometry" />
        </mxCell>
        <mxCell id="MujrepZRNqrhU4MuNXRA-173" value="&lt;b&gt;N&lt;/b&gt;" style="text;html=1;align=center;verticalAlign=middle;resizable=0;points=[];autosize=1;strokeColor=none;fillColor=none;" vertex="1" parent="1">
          <mxGeometry x="-157.5" y="920" width="30" height="30" as="geometry" />
        </mxCell>
        <mxCell id="MujrepZRNqrhU4MuNXRA-174" value="" style="endArrow=none;html=1;rounded=0;entryX=0;entryY=0.5;entryDx=0;entryDy=0;exitX=1;exitY=0.5;exitDx=0;exitDy=0;" edge="1" parent="1" source="MujrepZRNqrhU4MuNXRA-15" target="MujrepZRNqrhU4MuNXRA-162">
          <mxGeometry width="50" height="50" relative="1" as="geometry">
            <mxPoint x="-185" y="590" as="sourcePoint" />
            <mxPoint x="-135" y="540" as="targetPoint" />
            <Array as="points">
              <mxPoint x="381" y="638" />
            </Array>
          </mxGeometry>
        </mxCell>
        <mxCell id="MujrepZRNqrhU4MuNXRA-175" value="" style="endArrow=none;html=1;rounded=0;exitX=1;exitY=0.5;exitDx=0;exitDy=0;entryX=0.5;entryY=0;entryDx=0;entryDy=0;" edge="1" parent="1" source="MujrepZRNqrhU4MuNXRA-162" target="MujrepZRNqrhU4MuNXRA-16">
          <mxGeometry width="50" height="50" relative="1" as="geometry">
            <mxPoint x="570" y="860" as="sourcePoint" />
            <mxPoint x="540" y="930" as="targetPoint" />
            <Array as="points">
              <mxPoint x="546" y="835" />
            </Array>
          </mxGeometry>
        </mxCell>
        <mxCell id="MujrepZRNqrhU4MuNXRA-176" value="&lt;b&gt;1&lt;/b&gt;" style="text;html=1;align=center;verticalAlign=middle;whiteSpace=wrap;rounded=0;" vertex="1" parent="1">
          <mxGeometry x="360" y="770" width="60" height="30" as="geometry" />
        </mxCell>
        <mxCell id="MujrepZRNqrhU4MuNXRA-177" value="&lt;b&gt;N&lt;/b&gt;" style="text;html=1;align=center;verticalAlign=middle;resizable=0;points=[];autosize=1;strokeColor=none;fillColor=none;" vertex="1" parent="1">
          <mxGeometry x="496" y="800" width="30" height="30" as="geometry" />
        </mxCell>
        <mxCell id="MujrepZRNqrhU4MuNXRA-179" value="&lt;b&gt;N&lt;/b&gt;" style="text;html=1;align=center;verticalAlign=middle;resizable=0;points=[];autosize=1;strokeColor=none;fillColor=none;" vertex="1" parent="1">
          <mxGeometry x="106" y="920" width="30" height="30" as="geometry" />
        </mxCell>
        <mxCell id="MujrepZRNqrhU4MuNXRA-180" value="&lt;b&gt;N&lt;/b&gt;" style="text;html=1;align=center;verticalAlign=middle;resizable=0;points=[];autosize=1;strokeColor=none;fillColor=none;" vertex="1" parent="1">
          <mxGeometry x="384" y="920" width="30" height="30" as="geometry" />
        </mxCell>
        <mxCell id="7B6m3BCbsMhmmBr8IJQS-7" value="" style="endArrow=none;html=1;rounded=0;entryX=0.5;entryY=1;entryDx=0;entryDy=0;exitX=1;exitY=0;exitDx=0;exitDy=0;" edge="1" parent="1" source="MujrepZRNqrhU4MuNXRA-39" target="MujrepZRNqrhU4MuNXRA-92">
          <mxGeometry width="50" height="50" relative="1" as="geometry">
            <mxPoint x="317" y="1049" as="sourcePoint" />
            <mxPoint x="301" y="973" as="targetPoint" />
            <Array as="points" />
          </mxGeometry>
        </mxCell>
      </root>
    </mxGraphModel>
  </diagram>
</mxfile>
